<svg width="84" height="84" viewBox="0 0 84 84" fill="none" xmlns="http://www.w3.org/2000/svg">
<circle cx="42" cy="42" r="42" fill="#EE2732"/>
<path d="M57.4906 31.6344L44.4219 41.6281L56.0813 53.2875C58.7719 50.0844 60.4375 45.9844 60.4375 41.5C60.4375 37.7844 59.2844 34.4531 57.4906 31.6344Z" fill="white"/>
<path d="M43.7812 38.9375L55.825 29.5844C52.75 26.2531 48.5219 23.9469 43.7812 23.5625V38.9375Z" fill="white"/>
<path d="M41.6031 42.3969C41.475 42.2688 41.475 42.2688 41.6031 42.3969C41.475 42.2688 41.475 42.1407 41.475 42.1407C41.475 42.0125 41.3469 42.0125 41.3469 41.8844C41.3469 41.7563 41.3469 41.7563 41.3469 41.6282V41.5V23.6907C31.8656 24.3313 24.5625 32.0188 24.5625 41.5C24.5625 51.3657 32.6344 59.4375 42.5 59.4375C46.9844 59.4375 51.0844 57.7719 54.2875 55.0813L41.6031 42.3969Z" fill="white"/>
</svg>
