<svg width="54" height="72" viewBox="0 0 54 72" fill="none" xmlns="http://www.w3.org/2000/svg">
<path d="M47.25 22.5411H47.1178C47.4434 19.7079 47.1659 16.8379 46.3035 14.1194C45.441 11.4009 44.0132 8.89527 42.1136 6.76683C40.2139 4.63839 37.8855 2.93523 35.2808 1.76904C32.6762 0.602861 29.8542 0 27 0C24.1458 0 21.3238 0.602861 18.7192 1.76904C16.1145 2.93523 13.7861 4.63839 11.8864 6.76683C9.9868 8.89527 8.55896 11.4009 7.69653 14.1194C6.83411 16.8379 6.5566 19.7079 6.88219 22.5411H6.75C4.95979 22.5411 3.2429 23.2516 1.97703 24.5164C0.711159 25.7812 0 27.4967 0 29.2854C0 31.0741 0.711159 32.7895 1.97703 34.0543C3.2429 35.3192 4.95979 36.0297 6.75 36.0297H47.25C49.0402 36.0297 50.7571 35.3192 52.023 34.0543C53.2888 32.7895 54 31.0741 54 29.2854C54 27.4967 53.2888 25.7812 52.023 24.5164C50.7571 23.2516 49.0402 22.5411 47.25 22.5411ZM22.9753 69.4268C23.3301 70.195 23.8977 70.8456 24.6109 71.3016C25.3242 71.7577 26.1532 72 27 72C27.8468 72 28.6758 71.7577 29.3891 71.3016C30.1023 70.8456 30.6699 70.195 31.0247 69.4268L45 40.5259H9L22.9753 69.4268Z" fill="#EE2732"/>
</svg>
