<svg width="84" height="75" viewBox="0 0 84 75" fill="none" xmlns="http://www.w3.org/2000/svg">
<path d="M70.8021 0L84 23.4375H69.2562L59.1646 0H70.8021ZM52.1354 0L62.2271 23.4375H21.7729L31.8646 0H52.1354ZM13.1979 0H24.8354L14.7437 23.4375H0L13.1979 0ZM0 28.125H14.6854L32.6229 64.9951C32.8417 65.4492 32.2292 65.8594 31.8937 65.4785L0 28.125ZM21.6125 28.125H62.3875L42.4083 74.7363C42.2625 75.0879 41.7521 75.0879 41.6062 74.7363L21.6125 28.125ZM51.3771 64.9951L69.3146 28.125H84L52.1062 65.4639C51.7708 65.8594 51.1583 65.4492 51.3771 64.9951Z" fill="#EE2732"/>
</svg>
