<svg width="76" height="67" viewBox="0 0 76 67" fill="none" xmlns="http://www.w3.org/2000/svg">
<path d="M4.75 62.2143C4.75 64.8614 6.87266 67 9.5 67H33.25V43.0714H4.75V62.2143ZM42.75 67H66.5C69.1273 67 71.25 64.8614 71.25 62.2143V43.0714H42.75V67ZM71.25 19.1429H65.0008C65.9211 17.3333 66.5 15.3292 66.5 13.1607C66.5 5.90737 60.6367 0 53.4375 0C47.2625 0 43.2695 3.18549 38.1484 10.2145C33.0273 3.18549 29.0344 0 22.8594 0C15.6602 0 9.79688 5.90737 9.79688 13.1607C9.79688 15.3292 10.3609 17.3333 11.2961 19.1429H4.75C2.12266 19.1429 0 21.2815 0 23.9286V35.8929C0 37.2089 1.06875 38.2857 2.375 38.2857H73.625C74.9313 38.2857 76 37.2089 76 35.8929V23.9286C76 21.2815 73.8773 19.1429 71.25 19.1429ZM22.8445 19.1429C19.5641 19.1429 16.907 16.4658 16.907 13.1607C16.907 9.85558 19.5641 7.17857 22.8445 7.17857C25.7984 7.17857 27.9805 7.6721 35.625 19.1429H22.8445ZM53.4375 19.1429H40.657C48.2867 7.70201 50.4094 7.17857 53.4375 7.17857C56.718 7.17857 59.375 9.85558 59.375 13.1607C59.375 16.4658 56.718 19.1429 53.4375 19.1429Z" fill="#EE2732"/>
</svg>
