<svg width="71" height="62" viewBox="0 0 71 62" fill="none" xmlns="http://www.w3.org/2000/svg">
<path d="M65.0833 7.75H47.3333V19.375H23.6667V7.75H5.91667C2.65017 7.75 0 10.3535 0 13.5625V56.1875C0 59.3965 2.65017 62 5.91667 62H65.0833C68.3498 62 71 59.3965 71 56.1875V13.5625C71 10.3535 68.3498 7.75 65.0833 7.75ZM35.5 27.125C39.8512 27.125 43.3889 30.6004 43.3889 34.875C43.3889 39.1496 39.8512 42.625 35.5 42.625C31.1488 42.625 27.6111 39.1496 27.6111 34.875C27.6111 30.6004 31.1488 27.125 35.5 27.125ZM47.0005 54.25H23.9995C22.7175 54.25 21.6821 53.0391 22.0766 51.8523C23.0997 48.7523 26.0703 46.5 29.5833 46.5H30.5941C32.1102 47.1176 33.762 47.4688 35.5 47.4688C37.238 47.4688 38.9021 47.1176 40.4059 46.5H41.4167C44.9174 46.5 47.888 48.7402 48.9234 51.8523C49.3179 53.0391 48.2825 54.25 47.0005 54.25ZM43.3889 3.875C43.3889 1.73164 41.6262 0 39.4444 0H31.5556C29.3738 0 27.6111 1.73164 27.6111 3.875V15.5H43.3889V3.875Z" fill="#EE2732"/>
</svg>
