<svg width="83" height="83" viewBox="0 0 83 83" fill="none" xmlns="http://www.w3.org/2000/svg">
<path d="M82.6719 41.1719C82.6719 63.9105 64.2387 82.3438 41.5 82.3438C18.7613 82.3438 0.328125 63.9105 0.328125 41.1719C0.328125 18.4332 18.7613 0 41.5 0C64.2387 0 82.6719 18.4332 82.6719 41.1719ZM74.7031 41.1719L74.7026 41.1251L70.3756 44.9004L59.9699 35.1885L62.7015 21.1843L68.3964 21.6943C64.2644 16.0139 58.4348 11.7185 51.6771 9.55171L53.9434 14.8541L41.5 21.748L29.0566 14.8542L31.3229 9.55188C24.5775 11.7147 18.7422 16.0049 14.6036 21.6944L20.342 21.1843L23.0301 35.1885L12.6246 44.9004L8.29754 41.1251L8.29704 41.1719C8.29704 48.313 10.5378 55.1092 14.684 60.7602L15.963 55.1328L30.0972 56.8672L36.1237 69.7875L31.1596 72.7402C37.8337 74.9187 45.153 74.923 51.8405 72.7402L46.8763 69.7875L52.9028 56.8672L67.037 55.1328L68.316 60.7602C72.4624 55.1092 74.7031 48.313 74.7031 41.1719ZM33.5143 52.7218L28.5514 37.5625L41.5 28.1782L54.4486 37.5625L49.5308 52.7218H33.5143Z" fill="#EE2732"/>
</svg>
