<svg width="104" height="83" viewBox="0 0 104 83" fill="none" xmlns="http://www.w3.org/2000/svg">
<path d="M96.2 31.125H76.9047C78.9669 35.9218 78.0618 41.6945 74.1423 45.6046L52 67.6936V75.2188C52 79.5163 55.4921 83 59.8 83H96.2C100.508 83 104 79.5163 104 75.2188V38.9062C104 34.6087 100.508 31.125 96.2 31.125ZM78 60.9531C75.8469 60.9531 74.1 59.2104 74.1 57.0625C74.1 54.9129 75.8469 53.1719 78 53.1719C80.1531 53.1719 81.9 54.9129 81.9 57.0625C81.9 59.2104 80.1531 60.9531 78 60.9531ZM70.4649 30.6873L42.0387 2.32951C38.9253 -0.776504 33.8764 -0.776504 30.7629 2.32951L2.33512 30.6873C-0.778375 33.7933 -0.778375 38.8301 2.33512 41.9361L30.7612 70.2955C33.8747 73.4015 38.9236 73.4015 42.0371 70.2955L70.4649 41.9377C73.5784 38.8301 73.5784 33.7933 70.4649 30.6873ZM15.6 40.2031C13.4469 40.2031 11.7 38.4604 11.7 36.3125C11.7 34.1629 13.4469 32.4219 15.6 32.4219C17.7531 32.4219 19.5 34.1629 19.5 36.3125C19.5 38.4604 17.7531 40.2031 15.6 40.2031ZM36.4 60.9531C34.2469 60.9531 32.5 59.2104 32.5 57.0625C32.5 54.9129 34.2469 53.1719 36.4 53.1719C38.5531 53.1719 40.3 54.9129 40.3 57.0625C40.3 59.2104 38.5531 60.9531 36.4 60.9531ZM36.4 40.2031C34.2469 40.2031 32.5 38.4604 32.5 36.3125C32.5 34.1629 34.2469 32.4219 36.4 32.4219C38.5531 32.4219 40.3 34.1629 40.3 36.3125C40.3 38.4604 38.5531 40.2031 36.4 40.2031ZM36.4 19.4531C34.2469 19.4531 32.5 17.7104 32.5 15.5625C32.5 13.4129 34.2469 11.6719 36.4 11.6719C38.5531 11.6719 40.3 13.4129 40.3 15.5625C40.3 17.7104 38.5531 19.4531 36.4 19.4531ZM57.2 40.2031C55.0469 40.2031 53.3 38.4604 53.3 36.3125C53.3 34.1629 55.0469 32.4219 57.2 32.4219C59.3531 32.4219 61.1 34.1629 61.1 36.3125C61.1 38.4604 59.3531 40.2031 57.2 40.2031Z" fill="#EE2732"/>
</svg>
