<svg width="84" height="84" viewBox="0 0 84 84" fill="none" xmlns="http://www.w3.org/2000/svg">
<circle cx="42" cy="42" r="42" fill="#EE2732"/>
<path d="M55.5 27.375H36.75C34.6875 27.375 33 29.0625 33 31.125V44.25C33 44.25 42.9375 38.0625 45.375 40.5C47.8125 42.9375 42.9375 48 42.9375 48H55.5C57.5625 48 59.25 46.3125 59.25 44.25V31.125C59.25 29.0625 57.5625 27.375 55.5 27.375ZM55.5 34.875H36.75V31.125H55.5V34.875Z" fill="white"/>
<path d="M34.5 31.125C33.375 31.125 31.5 31.6875 29.4375 33.5625L23.625 38.625V53.625H30.75C37.125 53.625 38.625 51.75 41.4375 49.125C44.25 46.5 48.1875 43.6875 45.375 40.5C43.6875 38.4375 41.4375 38.8125 37.5 41.625C35.4375 42.9375 33.5625 44.25 33.5625 44.25" stroke="white" stroke-width="2" stroke-miterlimit="10" stroke-linecap="round"/>
</svg>
