<svg width="84" height="84" viewBox="0 0 84 84" fill="none" xmlns="http://www.w3.org/2000/svg">
<circle cx="42" cy="42" r="42" fill="#EE2732"/>
<path d="M60.5917 42C60.5917 52.35 52.1583 60.5917 42 60.5917C31.8417 60.5917 23.4083 52.35 23.4083 42C23.4083 31.65 31.65 23.4083 42 23.4083C52.35 23.4083 60.5917 31.65 60.5917 42ZM41.8083 50.8167C41.8083 50.4333 41.6167 50.2417 41.2333 50.05C40.0833 49.6667 38.9333 49.6667 37.975 48.7083C37.7833 48.325 37.7833 47.9417 37.5917 47.5583C37.2083 47.175 36.25 46.9833 35.675 46.7917C34.9083 46.7917 34.1417 46.7917 33.1833 46.7917C32.8 46.7917 32.225 46.7917 31.8417 46.7917C31.2667 46.6 30.8833 45.8333 30.5 45.2583C30.5 45.0667 30.5 44.6833 30.1167 44.6833C29.7333 44.4917 29.35 44.875 28.9667 44.6833C28.775 44.4917 28.775 44.3 28.775 44.1083C28.775 43.5333 29.1583 42.9583 29.5417 42.575C30.1167 42.1917 30.6917 42.7667 31.2667 42.7667C31.4583 42.7667 31.4583 42.7667 31.65 42.9583C32.225 43.15 32.4167 43.9167 32.4167 44.4917C32.4167 44.6833 32.4167 44.875 32.4167 44.875C32.4167 45.0667 32.6083 45.0667 32.8 45.0667C32.9917 44.1083 32.9917 43.15 33.1833 42.1917C33.1833 41.0417 34.3333 39.8917 35.2917 39.5083C35.675 39.3167 35.8667 39.7 36.25 39.5083C37.4 39.125 40.275 37.975 39.7 36.4417C39.3167 35.1 38.1667 33.7583 36.6333 33.95C36.25 34.1417 36.0583 34.3333 35.675 34.525C35.1 34.9083 33.95 36.0583 33.375 36.0583C32.4167 35.8667 32.4167 34.525 32.6083 33.95C32.8 33.1833 34.525 30.6917 35.675 31.075C35.8667 31.2667 36.25 31.65 36.4417 31.8417C36.825 32.0333 37.4 32.0333 37.975 32.0333C38.1667 32.0333 38.3583 32.0333 38.55 31.8417C38.7417 31.65 38.7417 31.65 38.7417 31.4583C38.7417 30.8833 38.1667 30.3083 37.7833 29.925C37.4 29.5417 36.825 29.1583 36.25 28.9667C34.3333 28.3917 31.2667 29.1583 29.7333 30.5C28.2 31.8417 27.05 34.1417 26.2833 36.0583C25.9 37.2083 25.5167 38.7417 25.325 40.0833C25.1333 41.0417 24.9417 41.8083 25.5167 42.7667C26.0917 43.9167 27.2417 45.0667 28.3917 45.8333C29.1583 46.4083 30.6917 46.4083 31.4583 47.3667C32.0333 48.1333 31.8417 49.0917 31.8417 50.05C31.8417 51.2 32.6083 52.1583 32.9917 53.1167C33.1833 53.6917 33.375 54.4583 33.5667 55.0333C33.5667 55.225 33.7583 56.375 33.7583 56.5667C34.9083 57.1417 35.8667 57.7167 37.2083 58.1C37.4 58.1 38.1667 56.95 38.1667 56.7583C38.7417 56.1833 39.125 55.4167 39.7 55.0333C40.0833 54.8417 40.4667 54.65 40.85 54.2667C41.2333 53.8833 41.425 53.1167 41.6167 52.5417C41.8083 52.1583 42 51.3917 41.8083 50.8167ZM42.1917 33.1833C42.3833 33.1833 42.575 32.9917 42.9583 32.8C43.5333 32.4167 44.1083 31.8417 44.6833 31.4583C45.2583 31.075 45.8333 30.5 46.2167 30.1167C46.7917 29.7333 47.175 28.9667 47.3667 28.3917C47.5583 28.0083 48.1333 27.2417 47.9417 26.6667C47.75 26.2833 46.7917 26.0917 46.4083 25.9C44.875 25.5167 43.5333 25.325 42 25.325C41.425 25.325 40.6583 25.5167 40.4667 26.0917C40.275 27.05 41.0417 26.8583 41.8083 27.05C41.8083 27.05 42 28.5833 42 28.775C42.1917 29.7333 41.6167 30.3083 41.6167 31.2667C41.6167 31.8417 41.6167 32.8 42 33.1833H42.1917ZM58.2917 46.6C58.4833 46.2167 58.4833 45.6417 58.675 45.2583C58.8667 44.3 58.8667 43.3417 58.8667 42.3833C58.8667 40.4667 58.675 38.55 58.1 36.825C57.7167 36.25 57.525 35.675 57.3333 35.1C56.95 34.1417 56.375 33.1833 55.6083 32.4167C54.8417 31.4583 53.8833 28.775 52.1583 29.5417C51.5833 29.7333 51.2 30.5 50.8167 30.8833C50.4333 31.4583 50.05 32.0333 49.6667 32.6083C49.475 32.8 49.2833 33.1833 49.475 33.375C49.475 33.5667 49.6667 33.5667 49.8583 33.5667C50.2417 33.7583 50.4333 33.7583 50.8167 33.95C51.0083 33.95 51.2 34.1417 51.0083 34.3333C51.0083 34.3333 51.0083 34.525 50.8167 34.525C49.8583 35.4833 48.9 36.25 47.9417 37.2083C47.75 37.4 47.5583 37.7833 47.5583 37.975C47.5583 38.1667 47.75 38.1667 47.75 38.3583C47.75 38.55 47.5583 38.55 47.3667 38.7417C46.9833 38.9333 46.6 39.125 46.4083 39.3167C46.2167 39.7 46.4083 40.275 46.2167 40.6583C46.025 41.6167 45.45 42.3833 45.0667 43.3417C44.6833 43.9167 44.4917 44.4917 44.1083 45.0667C44.1083 45.8333 43.9167 46.4083 44.3 46.9833C45.2583 48.325 46.9833 47.5583 48.325 48.1333C48.7083 48.325 49.0917 48.325 49.2833 48.7083C49.8583 49.2833 49.8583 50.2417 50.05 50.8167C50.2417 51.5833 50.4333 52.35 50.8167 53.1167C51.0083 54.075 51.3917 55.0333 51.5833 55.8C53.3083 54.4583 54.8417 52.925 55.9917 51.0083C57.1417 49.6667 57.7167 48.1333 58.2917 46.6Z" fill="white"/>
<path d="M42 22.8334C31.4583 22.8334 22.8333 31.4584 22.8333 42C22.8333 52.5417 31.4583 61.1667 42 61.1667C52.5416 61.1667 61.1666 52.5417 61.1666 42C61.1666 31.4584 52.5416 22.8334 42 22.8334ZM42 58.1C33.1833 58.1 25.9 50.8167 25.9 42C25.9 33.1834 33.1833 25.9 42 25.9C50.8166 25.9 58.1 33.1834 58.1 42C58.1 50.8167 50.8166 58.1 42 58.1Z" fill="white"/>
</svg>
