<svg width="235" height="33" viewBox="0 0 235 33" fill="none" xmlns="http://www.w3.org/2000/svg">
<path d="M137.2 0L133.8 19.5L122.8 0.2L122.7 0H115.5L109.7 32.6H118.6L121.4 16.3L130.7 32.6H139.9L146.1 0H137.2Z" fill="#EE2732"/>
<path d="M94.3 0C83.5 0 75.9 6.1 74 16.2C73.1 21.2 73.9 25.3 76.4 28.2C78.9 31.1 83.1 32.6 88.4 32.6C99.2 32.6 106.8 26.5 108.7 16.3C109.6 11.3 108.8 7.2 106.3 4.3C103.8 1.5 99.7 0 94.3 0ZM99.9 16.2C98.9 21.7 95.3 24.7 89.7 24.7C87.1 24.7 85.1 24 83.9 22.6C82.7 21.2 82.3 19 82.8 16.3C83.8 10.9 87.4 7.8 92.9 7.8C95.6 7.8 97.6 8.5 98.8 9.9C100.1 11.4 100.4 13.5 99.9 16.2Z" fill="#EE2732"/>
<path d="M51.3 32.5999H60L63.7 11.8999H55L51.3 32.5999Z" fill="white"/>
<path d="M49.1 0L47.7 8.2H72.4L73.8 0H49.1Z" fill="white"/>
<path d="M30.2 32.6H39L44.8 0H35.9L30.2 32.6Z" fill="white"/>
<path d="M174.8 32.6H200.1L201.5 24.4H184.9L187.8 8.2H204.4L205.8 0H180.5L174.8 32.6Z" fill="white"/>
<path d="M194 11.3999C191.1 11.3999 188.7 13.3999 188.2 16.1999C188 17.5999 188.2 18.7999 189 19.6999C189.8 20.5999 191 21.0999 192.4 21.0999C195.3 21.0999 197.7 19.0999 198.2 16.2999C198.4 14.8999 198.2 13.5999 197.4 12.6999C196.6 11.8999 195.4 11.3999 194 11.3999Z" fill="#EE2732"/>
<path d="M211.8 32.5999H220.5L224.2 11.8999H215.4L211.8 32.5999Z" fill="white"/>
<path d="M209.6 0L208.1 8.2H232.8L234.3 0H209.6Z" fill="white"/>
<path d="M165.4 0H151L149.4 8.2H163.3C163.8 8.2 164.4 8.3 164.7 8.7C164.9 9 165 9.4 164.9 9.9C164.7 11.1 163.8 11.8 162.6 11.8H148.7L146.5 22.7L144.6 32.5H160.6C167.2 32.5 171.8 28.9 172.9 23C173.5 19.8 172.6 17 170.5 15.3C172.3 13.8 173.5 11.7 173.9 9.1C174.4 6.4 173.9 4.2 172.6 2.6C171.2 0.9 168.6 0 165.4 0ZM164.2 22.3C163.9 24.2 162.2 24.4 161.3 24.4H154.2L155.1 20H161.9C162.8 20 163.5 20.2 163.9 20.7C164.2 21.1 164.3 21.6 164.2 22.3Z" fill="white"/>
<path d="M20.8 0H6.4L4.8 8.2H18.7C19.2 8.2 19.8 8.3 20.1 8.7C20.3 9 20.4 9.4 20.3 9.9C20.1 11.1 19.2 11.8 18 11.8H4.1L1.9 22.8L0 32.6H16C22.6 32.6 27.2 29 28.3 23.1C28.9 19.9 28 17.1 25.9 15.4C27.7 13.9 28.9 11.8 29.3 9.2C29.8 6.5 29.3 4.3 28 2.7C26.6 1 24 0 20.8 0ZM19.6 22.3C19.3 24.2 17.6 24.4 16.7 24.4H9.6L10.5 20H17.3C18.2 20 18.9 20.2 19.3 20.7C19.6 21.1 19.7 21.6 19.6 22.3Z" fill="white"/>
</svg>
