<svg width="84" height="84" viewBox="0 0 84 84" fill="none" xmlns="http://www.w3.org/2000/svg">
<circle cx="42" cy="42" r="42" fill="#EE2732"/>
<path d="M40.5208 25.8334C35.625 25.8334 31.7083 29.75 31.7083 34.6459C31.7083 39.5417 35.625 43.4584 40.5208 43.4584C45.4167 43.4584 49.3333 39.5417 49.3333 34.6459C49.3333 29.75 45.4167 25.8334 40.5208 25.8334ZM41.8917 38.5625H39.15V33.275H37.1917L39.9333 30.5334H42.0875V38.5625H41.8917Z" fill="white"/>
<path d="M60.6917 45.6125C60.3 45.2209 59.7125 44.8292 58.5375 44.6334C57.3625 44.4375 51.0958 43.6542 50.3125 43.4584C49.1375 43.2625 47.7667 43.85 46.0042 45.025C44.8292 45.8084 42.4792 47.1792 42.2833 47.1792C42.4792 47.375 43.4583 47.375 43.4583 47.375H43.6542C45.8083 47.375 47.375 49.1375 47.375 51.0959V51.4875C47.375 53.6417 45.6125 55.2084 43.6542 55.2084H39.5417C36.0167 55.2084 32.6875 51.6834 32.6875 51.6834C32.6875 51.6834 36.8 53.25 39.5417 53.25H43.4583C44.6333 53.25 45.4167 52.2709 45.4167 51.2917C45.4167 50.3125 44.6333 49.3334 43.6542 49.3334C39.9333 48.9417 38.3667 47.375 38.3667 47.375C38.3667 47.375 35.0375 44.8292 33.8625 44.2417C29.75 41.8917 22.1125 46.7875 22.1125 46.7875L27.2042 57.95C27.2042 57.95 29.75 56.3834 33.275 57.7542C35.625 58.7334 36.9958 59.5167 39.3458 60.3C42.675 61.475 43.85 61.2792 46.0042 59.7125C47.9625 58.3417 57.3625 50.9 58.7333 49.9209C60.6917 48.1584 61.6708 46.7875 60.6917 45.6125Z" fill="white"/>
<path d="M50.3125 23.875C48.7458 23.875 47.1792 24.4625 46.0042 25.4417C47.1792 26.225 48.3542 27.2042 49.1375 28.1833L49.725 27.5958H51.2917C51.2917 27.5958 51.2917 32.2958 51.2917 34.6458C51.2917 35.625 51.0958 36.6042 50.9 37.5833C54.425 37.1917 57.1667 34.2542 57.1667 30.7292C57.1667 27.0083 54.0333 23.875 50.3125 23.875Z" fill="white"/>
</svg>
