<svg width="84" height="84" viewBox="0 0 84 84" fill="none" xmlns="http://www.w3.org/2000/svg">
<circle cx="42" cy="42" r="42" fill="#EE2732"/>
<path d="M54.95 43.75C54.95 43.225 55.125 42.525 55.125 42C55.125 41.475 55.125 40.775 54.95 40.25L58.625 37.625C58.975 37.45 59.15 36.925 58.8 36.4L55.3 30.275C55.125 29.75 54.6 29.575 54.25 29.75L50.05 31.675C49.175 30.975 47.95 30.275 46.9 29.925L46.375 25.375C46.375 24.85 46.025 24.5 45.5 24.5H38.5C37.975 24.5 37.625 24.85 37.625 25.375L37.1 29.75C35.875 30.275 34.825 30.8 33.95 31.5L29.75 29.75C29.4 29.575 28.875 29.75 28.7 30.1L25.2 36.225C24.85 36.75 24.85 37.275 25.375 37.45L29.05 40.25C29.05 40.775 28.875 41.475 28.875 42C28.875 42.525 28.875 43.225 29.05 43.75L25.375 46.375C25.025 46.55 24.85 47.075 25.2 47.6L28.7 53.725C28.875 54.25 29.4 54.425 29.75 54.25L33.95 52.325C34.825 53.025 36.05 53.725 37.1 54.075L37.625 58.625C37.625 59.15 37.975 59.5 38.5 59.5H45.5C46.025 59.5 46.375 59.15 46.375 58.625L46.9 54.075C48.125 53.55 49.175 53.025 50.05 52.325L54.25 54.25C54.6 54.425 55.125 54.25 55.3 53.9L58.8 47.775C58.975 47.425 58.975 46.9 58.625 46.55L54.95 43.75ZM42 49C38.15 49 35 45.85 35 42C35 38.15 38.15 35 42 35C45.85 35 49 38.15 49 42C49 45.85 45.85 49 42 49Z" fill="white"/>
</svg>
